<?xml version="1.0" encoding="UTF-8"?>
<svg id="Layer_2" data-name="Layer 2" xmlns="http://www.w3.org/2000/svg" viewBox="0 0 370.35 622.16">
  <defs>
    <style>
      .cls-1 {
        fill: none;
        stroke: #444da0;
        stroke-miterlimit: 10;
      }
    </style>
  </defs>
  <g id="Layer_1-2" data-name="Layer 1">
    <path class="cls-1" d="m267.33,219.73c-22.06,63.74-28.68,132.75-19.15,199.52,3.35,1.67,6.8-2,8.77-5.18,22.07-35.72,44.13-71.45,66.2-107.17-17.36,53.52-34.72,107.03-52.08,160.55,16.96-30.7,33.92-61.39,50.88-92.09,2.18-3.95,6.62-8.52,10.33-5.96-11.7,38.79-23.39,77.59-35.09,116.38,25.51-58.95,49.75-118.45,72.7-178.44-29.74,56.63-59.48,113.26-89.21,169.89-4.29-3.34-4.06-9.79-3.38-15.19,8.31-66.05,22.45-131.36,42.19-194.94-19.84,79.31-39.8,159.53-40.47,241.28,16.01-99.51,23.56-200.38,22.54-301.16-13.69,10.57-20.14,27.8-25.6,44.21-31.73,95.25-52.37,194.19-61.38,294.19,1.07-57.02,2.13-114.04,3.2-171.06.15-7.87.26-15.96-2.45-23.36s-8.9-14.06-16.73-14.94c-59.32,66-105.41,143.84-134.76,227.59-6.49,18.53-12.14,39.13-4.88,57.38,15.46-16.44,22.04-39.14,27.42-61.06,21.51-87.68,32.01-178.04,31.19-268.32-17.44,4.4-28.17,21.47-36.74,37.28C43.68,397.63,12.64,470.45.63,547.4c12.09-5.32,19.09-17.85,25.12-29.6,58.69-114.45,107.13-233.82,155.5-353-24.84,55.27-49.69,110.55-74.53,165.82,16.84-13.97,28.44-33.1,39.59-51.93,33.58-56.76,65.86-114.28,96.81-172.51-24.45,55.46-48.9,110.92-73.35,166.38,29.38-58.43,56.71-117.89,81.94-178.22l-60.84,144.15c36.04-54.01,67.6-111.02,94.24-170.24-18.85,38.16-37.96,77.15-43.85,119.3,24.14-29.63,48.27-59.25,72.41-88.88-18,46.86-36,93.72-54,140.59,4.9,3.53,10.81-2.8,13.52-8.2,25.6-51.17,51.2-102.34,76.8-153.51,4.09,32.65-2.92,66.59-19.62,94.95-10.27-41.34-23.2-86.55-58.85-109.87-15.96,9.31-18.28,31.14-17.68,49.61.94,28.81,6.71,61.27,30.7,77.25,15.89,3.62,28.52-13.19,34.9-28.18,21.92-51.53,25.01-114.76-6.92-160.76-5.76.82-11.53,1.63-17.29,2.45-17.88,36.46-22.76,79.12-13.57,118.68,2.88,12.39,7.45,25.03,16.92,33.53,9.47,8.49,24.98,11.33,34.92,3.39,4.23-3.39,7.01-8.27,9.11-13.27,8.23-19.65,6.43-44.15-7.63-60.15-14.06-16-40.94-20.29-57.39-6.76-11.81,9.72-16.31,25.61-19.21,40.63-2.03,10.51-3.58,21.4-1.26,31.85,2.33,10.45,9.29,20.46,19.51,23.62,16.12,4.99,32.47-8.58,39.95-23.7,16.65-33.63,4-78.86-27.67-98.98-7.86-4.99-17.12-8.61-26.35-7.36-14.57,1.97-25.24,15.82-28.28,30.21s-.1,29.29,2.83,43.7"/>
  </g>
</svg>