<?xml version="1.0" encoding="UTF-8"?>
<svg id="Layer_1" data-name="Layer 1" xmlns="http://www.w3.org/2000/svg" viewBox="0 0 126 126">
  <defs>
    <style>
      .cls-1 {
        fill: #8b288f;
      }

      .cls-1, .cls-2, .cls-3, .cls-4, .cls-5, .cls-6 {
        stroke-width: 0px;
      }

      .cls-2 {
        fill: #210e0e;
      }

      .cls-3 {
        fill: #1166b2;
      }

      .cls-4 {
        fill: #bd2025;
      }

      .cls-5 {
        fill: #fff;
      }

      .cls-6 {
        fill: #66a844;
      }
    </style>
  </defs>
  <path class="cls-2" d="m105.08,49.57c.53,3.12.28,6.15-.42,9.28-1.66,7.36-5.86,13.29-10.21,19.17-2.3,3.11-5.48,5.35-8.45,7.74-4.09,3.31-8.62,6.11-12.52,9.62-3.53,3.17-7.72,5.53-10.86,9.13-1.15,1.06-2.59,1.79-3.53,3.09-2.48,1.04-3.85,4.61-2.76,7.32.74,1.83,1.33,3.75,2.52,5.37.49.66.56,1.47.85,2.2.18.46.11.95-.38,1.13-.4.15-.78.69-1.31.17-1.76-1.73-3.81-3.05-5.97-4.21-.35-.19-.63-.68-.74-1.09-.81-2.88-2.86-4.8-5.01-6.68-2.03-1.78-1.9-3.81.3-5.44.59-.44,1.23-.84,1.84-1.25.86-.38,1.69-.81,2.3-1.56.03,0,.06-.01.09-.02,1.01-.93,2.05-1.82,3.13-2.66.95-.87,1.83-1.81,2.47-2.97,2.18-3.94,4.9-7.46,8.37-10.36,1.09-.91,2.84-1.87,4.5-2.53-2.33-.77-4.05-1.18-6.22-1.8-.89-.23-1.65.22-2.23.44-2.64,1.14-4.14,1.8-6.91,2.46-3.55.85-7.1.97-10.7.46-2.23-.24-4.45-.71-6.58-1.4-2.09-.67-4.35-1.46-6-2.97-.04-.04-.07-.08-.09-.12-.47-.31-.92-.64-1.37-.99-.02-.01-.05-.02-.07-.03-.09-.04-.15-.1-.18-.17-.36-.29-.71-.59-1.05-.9-1.63-1.49-3.18-3.07-4.76-4.61-1.93-2.77-3.2-5.85-4.42-8.97-.52-1.32-.98-2.66-1.07-4.1.07-3.05.25-6.05.78-9.11,1.41-8.1,5.75-14.36,11.28-20.08,4.55-4.71,9.95-8.12,15.73-11.05,6.77-3.43,13.79-6.28,21.12-8.14,6.07-1.54,12.23-2.78,18.5-3.47,6.26-.69,12.12-2.67,16.51-7.61.43-.49.88-1.08,1.62-.74.76.35.94,1.11.92,1.89-.04,1.45-.51,2.75-1.39,3.84-.54,1.08-1.48,1.94-2.27,2.84-.77.88-1.47,1.82-2.1,2.8-.17.4-.31.81-.63,1.14-.01.03-.03.06-.05.09-.34.36-.78.61-1.25.72-.78.29-1.76.33-2.61.1-1.88-.53-3.71-.63-5.48.36-.27.05-.53.13-.78.23-.7.49-1.39.98-2.14,1.39-.78.42-1.6.77-2.45,1.06-4.34,2.3-8.88,3.91-13.9,3.86-.2,0-.39.04-.36.44.84.37,1.56,1.06,2.28,1.72.29.26.53.43,1.03.32,4.81-1.06,9.61-1.28,14.33.49l.45.26c.71.27,1.42.55,2.13.82,1,.44,1.99.89,2.99,1.33.09.04.19.07.28.1.3.19.58.43.86.63l.03.03c.08.05.16.11.24.16.42.31.81.66,1.2,1.01.38.34.78.67,1.13,1.05,0,0,0,0,0,0,.26.33.5.68.72,1.04,0,0,.01,0,.02.02.18.21.37.42.55.64.57.71,1.13,1.43,1.7,2.14.39.49.78.98,1.18,1.47.92,1.34,1.86,2.66,2.55,4.14.82,3.14,2.18,6.12,2.73,9.33Zm-.62,5.22c.18-5.33-1.49-10.23-3.47-15.06-.34-.84-.71-1.73-1.48-2.34-.49.73-.89,1.49-1.42,2.13-1.14,1.38-2.66,2.13-4.45,1.95-1.61-.16-2.16-1.48-2.37-2.86-.13-.88-.57-.56-1.02-.46-2.1.46-3.65-.64-3.83-2.76-.05-.58,0-1.16,0-1.9-1.6,1.15-3.18,2.13-5.25,2.34.76.61,1.51.87,2.21,1.22,2.81,1.41,5.08,3.44,6.57,6.23,1.12,2.09,1.12,2.13,3.45,1.48.8-.22,1.46-.63,2.04-1.17.65-.61,1.36-1.16,1.82-1.95.14-.24.28-.59.65-.46.44.16.34.55.27.89-.06.34-.19.67-.26,1.01-.63,3.06-1.31,6.08-.75,9.28.37,2.1.81,3.9,3.2,4.44.35.08.69.31.66.7-.05.5-.5.35-.83.38-1.65.14-3.33.35-4.59,1.51-1.53,1.4-2.97,2.91-4.28,4.54-2.04,2.55-3.7,5.39-6.05,7.71-2.16,2.13-4.52,4.02-6.92,5.85-.29.22-.79.37-.24.86,1.36,1.21,2.1,2.79,2.59,4.56,2.02-2.21,4.02-2.38,6.47-.65.36.26.71.81,1.27.3,2.01-1.82,4.26-3.39,5.7-5.78.85-1.41.72-2.99-.38-3.75-.91-.63-2.39-.08-3.24,1.24-.31.49-.78,1.13-.31,1.62.47.48,1.09.18,1.51-.34.19-.24.43-.42.76-.2.3.2.28.47.25.79-.2,2.03-2.47,3.95-4.48,3.78-1.75-.15-3.43-2.39-3.19-4.37.21-1.75.99-3.43,2.01-4.72,3.6-4.53,8.32-7.8,13.48-10.26,2.68-1.27,3.8-3.03,3.89-5.78Zm-2.15-49.02c.45-.54.98-1.31.65-1.88,0-.02,0-.05,0-.07-.03-.12.05-.42-.28-.49-.36-.08-.51.24-.7.44-1.59,1.78-3.48,3.19-5.54,4.38-.25.14-.88.27-.51.65.16.17.29.45.46.67.18.13.36.22.61.2.22-.1.45-.2.67-.3.01,0,.02-.02.04-.02.04-.03.07-.04.11-.04,0,0,.01,0,.02,0,.69-.32,1.35-.67,2-1.06.19-.13.37-.27.55-.41.06-.05.12-.09.18-.14.69-.45,1.27-1.11,1.71-1.8.03-.04.04-.09.04-.13Zm1.08,54.6c-.39-.19-.75-.17-1.05.01-3.51,2.21-7.17,4.21-10.38,6.88-2.53,2.09-4.59,4.52-5.74,7.64-.6,1.63-.11,3.24,1.31,4.02,1.18.64,2.07-.19,2.93-.85.59-.45,1-.94-.16-1.28-1.18-.34-1.32-1.3-.98-2.27.5-1.43,1.75-2.24,3.08-2.55,1.09-.25,2.12.47,2.69,1.49.59,1.06.95.75,1.52-.02,2.93-4.01,5.07-8.41,6.78-13.06Zm-1.68-52.61s-.02-.1-.03-.12c-.68.51-1.39.99-2.12,1.43-.01,0-.02.01-.04.02-.34.25-.68.51-1.05.72-.52.29-1.2.93-1.84.82-.33-.06-.61-.3-.85-.56-.11-.19-.23-.33-.37-.43-.01-.02-.02-.03-.04-.04-.06-.07-.12-.09-.19-.09-.52-.23-1.16-.08-1.7-.07-1,.03-1.91.51-2.16,1.69-.26,1.2.82,2.99,2.17,3.55,1.07.44,2.49.17,3.31-.56.07-.05.13-.11.19-.17.75-1.3,1.61-2.54,2.59-3.67.7-.81,1.56-1.57,2.11-2.5,0,0,0-.01,0-.02Zm-4.79,31.57c1.1-.69,2.09-2.65,1.61-3.2-1.78-2.06-3.25-4.39-5.27-6.25-.51-.47-1.03-.71-1.74-.32-1.86,1.04-3.46,2.3-4.22,4.4-.41,1.14-.27,2.13.7,2.94.82.68,1.67.41,2.49.03,1.61-.73,1.6-.75,1.76,1.05.01.14.08.27.08.28-.04,1.93.77,2.6,2.43,2.07.75-.24,1.49-.58,2.15-.99Zm1.34,17.79c-2.73-3.95-2.45-8.26-1.54-13.06-1.47,1.22-2.7,1.78-4.11,1.97-.87.12-1.14.67-.71,1.51.16.3.23.65.32.99,1.11,4.31.88,8.6-.32,13.25,2-2.18,3.59-4.26,6.36-4.66Zm-6.67-42.7c.05-.01.07-.04.07-.07-.07-.12-.18-.28-.21-.31-.06-.08-.12-.16-.18-.24-.05-.08-.11-.16-.16-.24-.09-.42-.3-.8-.39-1.22-.07-.17-.17-.27-.35-.13-.08.06-.15.18-.22.26-.07.08-.14.16-.21.25-.09.14-.19.28-.3.42-.12.15-.25.27-.4.4-.12.1-.24.2-.34.33-.14.11-.27.23-.39.36-.02.02-.04.04-.06.06-.17.17-.34.36-.47.57.02.08.08.14.22.14.12-.03.24-.07.37-.1.04-.02.09-.03.13-.05.33-.1.66-.18,1-.24.58-.11,1.16-.15,1.74-.14.05,0,.09-.02.14-.03Zm-.98-4c.12-.18-.08-.47-.3-.39-1.17.49-2.48.68-3.73.9-1.08.18-2.08.41-2.85,1.23-.79.84-1.39,1.93-2.65,2.03-1.03.09-2.16-.35-2.75-1.23-.08-.13-.22-.16-.36-.09-.58.26-1.19.32-1.81.32.08.1.14.2.21.31.23.33.44.68.62,1.05.08.13.14.27.19.42,0,0,0,.02.01.03.01.03.02.06.03.09.05.15.08.3.11.44.22.9.11,1.77-.33,2.59-.73,1.34-2.09,2.18-3.42,2.85,1.89-.31,3.72-.86,5.47-1.64.03-.02.07-.03.1-.03.8-.35,1.59-.7,2.39-1.06.63-.28,1.21-.63,1.84-.91.56-.25,1.14-.45,1.69-.74,1.1-.58,1.88-1.71,2.65-2.66.96-1.18,2.04-2.26,2.9-3.52Zm-3.2,21.17c1.21-1.45,2.41-2.21,3.85-3.23-1.98-.31-3.39-1.43-5.17-1.74,1.37,1.29,1.42,2.92,1.33,4.98Zm-.71,37.12c6.78-7.42,7.99-21.65-1.13-28.82-1.85-1.45-3.68-2.83-6.03-3.33,1.19,1.02,2.6,1.77,3.67,2.86,1.76,1.79,3.42,3.68,3.17,6.55-.27,2.97-1.66,5.36-3.46,7.59-1.5,1.87-2.82,3.83-3.79,6.03-1.47,3.33-1.97,6.98-3.5,10.3-.7,1.51-1.23,3.1-2.48,4.34,1.09.84,2.17,1.56,3.11,2.43.65.61,1.08.61,1.76.08,3.13-2.43,6.01-5.13,8.68-8.04Zm-.01,15.33c.65-.52.55-.96-.11-1.39-1.17-.77-2.4-.95-3.66-.35-1.2.57-1.36,1.72-1.44,2.83,0,.71-.03,1.39.62,1.78.74.44,1.21-.19,1.69-.55.99-.74,1.93-1.54,2.9-2.31Zm-.65-54.03c.03-.33,0-.67-.07-1-.05-.24-.23-.89-.57-.81-.02,0-.05.02-.07.03-.06.02-.11.03-.17.03-.2.11-.39.21-.59.32-.04.04-.08.08-.13.11-.43.23-.86.46-1.28.69-.03.02-.07.03-.1.04-1.09.7-.23,2.35.31,3.15.29.45-.41.85-.74.5-1.16-1.22-3.09-.88-3.86.57-.17.32-.62.21-.78-.05-.4-.69-1.16-1.11-1.94-1.17.67.84,1.44,1.6,2.3,2.25.69.19,1.43.24,2.1.24,1.18,0,2.51-.2,3.5-.89,1.01-.7,1.6-1.91,1.92-3.07.08-.31.15-.63.18-.95Zm-1.06-2.7c.11-.11.16-.24.18-.39-1.15-1.28-3.1-1.46-4.75-1.41-.58.02-1.16.06-1.74.11.04.31.05.61.04.92,0,0,.01.02.02.03.63,1.24,1.9,2.03,3.29,2.06.06,0,.11.01.16.03.22-.03.44-.08.66-.16.02,0,.03-.01.05-.01.68-.39,1.37-.77,2.06-1.14.01-.02.03-.03.04-.05Zm-.05,18.3c.05-.84-.13-1.08-1.07-.89-2.8.57-5.63,1.02-8.45,1.49-.36.06-.81.31-1.1-.11-.27-.4.06-.76.25-1.09,1.25-2.15,2-4.51,2.77-6.86.32-.97.71-2.1-.33-2.99-.1-.11-.19-.23-.29-.34l.02.02c-.28-.29-.56-.59-.84-.88-.12-.24-.24-.49-.37-.74-.04-.05-.08-.1-.12-.15-.27-.45-.56-.9-.93-1.26,0,0,0,0,.01,0-.53-.83-.97-1.71-1.32-2.63-.02-.03-.04-.07-.05-.1-.01-.02-.03-.04-.04-.07-.17-.37-.34-.74-.52-1.12-1.33-2.01-2.95-3.78-5.27-4.99-.39-.2-1.1-.36-.99-.96.12-.67.89-.58,1.36-.64,1.62-.23,3.17-.61,4.84-1.39-1.09-.52-2.04-.81-2.8-1.44-.91-.76-2.01-.84-3.1-.71-2.1.26-2.41.89-1.49,2.75.13.27.38.55.18.81-.2.29-.54.14-.82.04-1.07-.42-1.8.06-2.45.86-.77.95-.37,1.86.05,2.78.44.97,1.31.76,2.06.69.81-.08,1.59-.03,2.36.15,2.61.61,3.9,4.09,2.35,6.32-.07.03-.14.07-.21.1-.86.63-2.09.46-2.75-.43-.05-.07-.06-.16-.03-.24-.01-.1.04-.22.17-.25.28-.08.6-.12.86-.24.16-.07.14-.29.12-.49-.28-.55-.75-.13-1.09.04-1.18.6-1.77,3.15-1.11,4.55,1.83,3.89,3.77,7.73,5.89,11.47.07.13.22.31.31.47.05.05.09.1.14.15.04.04.07.07.11.11.06.06.13.12.19.18.28.26-.17.65-.45.4-.07-.06-.13-.12-.19-.18-.04-.04-.07-.07-.11-.11-.2-.21-.39-.43-.57-.65-.09.02-.16.08-.17.18l-.08.58c-.03.13-.08.26-.12.38-.29.43-.37.99-.69,1.39.31.2.44,0,.6-.08,3.38-1.68,6.96-.28,8.47,3.17.51,1.15.42,2.25.26,3.36-.02.07-.03.14-.04.2-.02.03-.04.07-.05.12-.07.4-.21.77-.35,1.15-.05.1-.11.19-.16.29-.15.29-.28.59-.4.89l-.35.6c-.46.42-.9.89-1.44,1.14-.27.14-.56.18-.85.18-.54.1-1.09.14-1.65.1-.42-.03-.44-.6-.11-.73.01-.03.02-.06.04-.08.27-.38.49-.78.67-1.22.03-.07.07-.12.12-.16.34-.52.48-1.12.36-1.89-.1-.62-.47-.98-1.03-1.12-.46-.12-.87-.01-1.23.21-.27.46-.83.7-1.37.62-.46-.07-.83-.34-1.11-.7-.15-.1-.3-.22-.42-.35-.49-.49-.87-1.11-1.14-1.78-.34-.55-.5-1.08-.49-1.69,0-.01,0-.03,0-.04-.2.27-.41.55-.61.83-.28.31-.81.75-.85,1.16-1.48,2.01-2.96,4.03-4.45,6.04.01,0,.03-.01.04-.02-.35.43-.79.9-.91,1.44-.31.93-.7,1.79-.27,2.47.53.83,1.05,1.67,2.13,2.61-.66-1.56-.72-2.48-.53-3.82.02-.15.12-.53.16-.68.35-.92.6-1.36,1.46-1.99.03-.02.05-.03.08-.05.92-.57,1.92-1,3.01-1.05.68-.03,1.1-.15,1.72.14.02.03.47.24.5.26.33.22.33.17.78.61.09.12.19.25.28.37.05.08.21.27.28.44,0,.02,0,.05,0,.07-.19.09-.29.2-.5.28-.11.04-.26.13-.36.19-.36.18-.8.66-1.13.97-.52.51-.8,1.16-.57,2.14.42,1.74,1.72,2.67,3.48,2.55.44-.03,1.02-.59,1.31.08.27.62-.42.95-.76,1.32-.45.49-.95.84-1.52,1.04-.18.07-.56.18-.75.23-.79.22-1.67.25-2.57.3,1.75,1.26,3.33,2.36,4.88,3.51.61.45.95.41,1.37-.27.73-1.19,1.32-2.43,1.9-3.69,1.32-2.88,1.49-6.05,2.38-9.04.19-.43.41-.84.61-1.26.21-.39.42-.77.6-1.17.1-.22.19-.44.28-.66.01-.01.02-.02.03-.04.19-.29.35-.59.5-.9,1.88-2.33,3.59-4.78,4.81-7.55.42-.95.68-1.95.75-3.01Zm-1.48-1.83c.83-.13.71-.68.53-1.03-1.2-2.3-2.11-2.69-3.48-3.98-.84-.68-.89-.78-1.25-1.05-.22-.17-.36-.13-.36-.13-.11.08-.2.24-.2.44-.34,2.06-1.59,4.29-2.13,5.34-.27.55-.41.92-.54,1.16-.24.44.02.42.24.38,2.46-.45,4.68-.74,7.19-1.13Zm-1.63-14.2c-1.32.03-2.62-.49-3.53-1.46-.93,1.09-2.36,1.63-3.78,1.46.11.39.23.78.37,1.16.16.28.33.55.51.82,1.09-.14,2.21.26,2.96,1.07.84-1.04,2.23-1.4,3.46-1.04-.13-.38-.21-.78-.18-1.19.02-.28.09-.55.2-.8Zm1.25-17.91c-1.45.03-2.62.35-3.9.72q1.87,1.52,3.9-.72Zm-3.71,75.2c1.05-2.81.69-5.41-1.4-7.58-2.42-2.52-5.31-4.47-8.13-6.5-.64-.46-.88-.32-1.2.32-.77,1.51-1.21,3.04-.73,4.73.25.89.49,1.78.74,2.68-.69.18-1.01-.22-1.36-.56-2.14-2.14-3.8-1.78-4.77,1.04-.08.23-.07.51-.42.47-.26-.03-.49-.14-.55-.42-.11-.43-.14-.88-.29-1.3-.87-2.55-4.07-4.09-6.06-2.94-.35.2-.64.83-1.12.4-.56-.5.1-.89.3-1.28.93-1.88.84-3.32-.33-4.35-.24-.21-.77-.26-.64-.7.16-.53.66-.25,1.02-.27,2.66-.12,4.88-2.45,4.79-5.08-.08-2.52-1.92-3.67-3.83-4.65-2.8-1.43-5.17.18-5.02,3.29.03.71.21,1.35.85,1.61.64.27,1.25-.1,1.73-.57.21-.2.38-.46.54-.71.39-.61.8-.47.9.1.37,1.96-.73,5.04-3.37,5.27-2.86.24-6.27-2.86-6.64-6.07-.33-2.81.3-5.47,1.55-7.91,1.2-2.34,2.74-3.59,5.29-3.46,1.19.06,2.03.85,3.05,1.41.48-1.8.15-3.34-.75-4.8-.2-.32-.7-.65-.4-1.02.33-.42.84-.05,1.21.11,1.99.9,3.33,2.3,3.4,4.63,0,.16,0,.31,0,.47.02-.05.03-.1.05-.14.62-3.51.38-7.16-.72-10.57-.03-.05-.04-.1-.05-.15-.13-.49.59-.67.84-.26.01.02.02.03.03.05,1.79,2.85,2.91,6.08,3.3,9.41v.19c.04.18.09.36.16.52.08.18.19.19.3.14.37-.55.66-1.23,1-1.86,0,0,0,0,.01,0,.14-.29.32-.56.53-.81,1.22-2.36,2.74-4.55,4.5-6.55,0,0,0,0,0,0,.01-.02.03-.03.04-.04.02-.02.04-.04.06-.05-.49-.79-.87-1.64-1.23-2.5-.44-1.03-.84-1.63-2.11-.72-1.04.74-2.42,1.03-3.61.05-1.08-.89-1.27-2.38-.57-3.97.45-1.01,1.09-1.88,1.9-2.64.79-.74.2-1.54-.13-2.12-.43-.75-.99.04-1.31.3-3.47,2.86-5.31,6.47-4.81,11.05.12,1.06.17,1.45-1.16,1.21-2.77-.51-6.48,1.76-7.66,4.29-1.56,3.34-2.44,6.88-3.22,10.44-.98,4.48-.45,8.52,2.22,12.64,2.07,3.19,2.6,2.32,3.42,3.15,1.01,1.02,1.82,2.15,2.94,3.12,1.26,1.09,2.32,1.74,3.24,2.26,4.07,2.29,8.99,3.38,13.52,4.56.98.25,1.89.58,2.94.64,2.04.12,3.18,1.58,2.99,3.48-.08.85-.1.85-.88.45-.77-.4-1.5-.37-2.13.3-1.23,1.31-1.38,3.36-.4,4.81.32.19.7.26,1.07.19,3.26-1.4,5.32-3.93,6.55-7.23Zm-1.61-60.44c-.02-.2-.03-.4-.02-.6-.89-.03-1.78-.03-2.68,0-.58.06-1.16.15-1.74.26-.02.02-.05.04-.08.05-.08.03-.21.06-.28.12-.11.11-.11,0-.04.2.08.23.2.45.3.67.04.09.08.18.12.27.21.39.41.78.65,1.15.56.18,1.12.2,1.66.1,1.05-.38,1.97-1.13,2.11-2.22Zm-.16,28.39c.11-2.11-1.24-4.11-3.35-4.97-1.55-.63-4.43.14-5.58,1.46-.29.33-.37.67-.3,1.09.21,1.22,1.24,1.88,1.95,2.72.45.53,1.03-.28,1.58-.4,2.08-.42,3.42.91,3.08,2.96-.08.47-.33.83-.58,1.18,0,0,0,.01,0,.02-.11.28-.24.55-.38.81.77-.09,1.58-.26,2.09-.86.05-.06.11-.1.17-.12.91-1.03,1.26-2.39,1.33-3.9Zm-1.88-36.92c.71-1.07.09-3.33-1.12-4.26-.51-.39-1.01-.36-1.53-.14-.43.18-.16.46-.06.72.44,1.2-.16,1.98-1.2,2.31-1.08.35-2.01-.1-2.29-1.27-.19-.8-.58-.83-1.27-.8-1.78.07-3.11,1.17-4.63,1.86-2.97,1.34-5.16,5.66-3.16,9.12,1.08,1.88,2.19,3.81,2.73,5.97.08.34.05.8.54.95.97-2.34,1.95-3.02,3.61-2.29.04.05.08.1.11.16.05.2.12.4.13.59.03.19,0,.38-.1.55-.16.27-.44.36-.72.39-.05.02-.1.04-.15.05,0,.06.03.12.09.15.15.07.31.09.47.05.01,0,.02,0,.03-.01.02,0,.03,0,.05,0,.04,0,.08-.01.11-.02.03,0,.05-.01.08-.02.33-.02.65-.1.89-.35.29-.3.32-.77.33-1.17.02-.51-.08-.99-.29-1.39-.4-2-1.7-2.78-4.21-2.53-1.87.19-2.82-.55-3.44-2.09-.66-1.64.35-2.62,1.44-3.33.96-.62,1.9-.96,1.17-2.34-.15-.29.12-.57.42-.69,1.04-.45,2.02-1.02,3.21-1.09,1.72-.1,3.02.75,4.36,1.62,1.46.95,3.56.57,4.4-.7Zm-1.57,69.69c.04-.5-.18-1.12-.79-1.49-1.45-.87-4.07-.46-5.42.98-.61.65-1.18,1.34-1.7,2.06-1.34,1.91-1.87,4.01-1.17,6.29.36,1.15,0,1.19-1.02,1.08-2.36-.25-4.61-.08-6.41,1.86-2.56,2.74-2.8,7.11-1.83,10.13.1.3.36.62.68.04.21-.37.55-.76.93-.94,1.21-.59,1.44-1.46,1.33-2.76-.14-1.58.77-3.18,2.06-3.58.06-.07.14-.13.25-.15,1.06-.24,2.14-.32,3.22-.23,1.22-.4,2.28-1.12,3.39-1.88,1.6-1.09,3.17-2.19,4.56-3.54.22-.21.39-.4.44-.62-.87.05-1.73-.39-2.2-1.24-.05-.08-.06-.16-.04-.23-.85-1.28-.37-3.84,1.02-4.91.45-.35.92-.52,1.49-.56.42-.03,1.16.43,1.21-.32Zm-3.03-71.84c.61-.02,1.07-.25,1.02-.86-.05-.62-.36-1.12-1.11-1.13-.53,0-.88.24-.86.78.02.63.23,1.17.95,1.21Zm-2,30.95c.05-.24.06-.44,0-.59-.03-.24-.08-.5-.15-.76-.1-.42-.22-.88-.5-1.22-.05-.09-.11-.18-.18-.26-.02-.02-.04-.05-.05-.07-2.12,2.39-3.38,5.39-5.27,7.96-.13.28-.23.56-.31.86-.65,1.14-1.08,2.42-1.42,3.7-.04.72-.11,1.45-.22,2.11,1.21-1.88,2.44-3.87,3.91-5.55.39-.32.67-.73.99-1.12,0,0,0,.01.01.02,0,0,.01-.02.02-.02.8-1.06,1.61-2.12,2.41-3.19,0-.03.02-.05.03-.08,0,0,.02,0,.02,0,.04-.05.08-.11.12-.17.13-.29.25-.58.36-.88.12-.23.19-.48.23-.73Zm-.44,14.01c.19-.13.45-.23.54-.4-.43-.41-1.1-.76-1.68-.88-.5,0-.76-.02-1.2.06-.56.11-1.03.18-1.58.42-.01.03-.47.25-.64.37-.44.29-.48.34-.78.77-.07.23-.25.59-.41,1.12-.73,2.39-.17,4.47,2.98,6.13,1.67.89,3.99.76,5.12-.79-4.15-.55-5.11-2.91-3.95-5.43.42-.52,1.07-.99,1.59-1.36Zm-1.12,12.34c.42-.85-.05-.93-.72-.83-1.49.23-2.88.71-4.06,1.69-.31.25-.64.53-1.07.27-.37-.23-.23-.62-.21-.95.06-1.74.03-3.48-.73-5.1-.12-.25-.14-.64-.49-.68-.38-.05-.44.33-.57.58-.88,1.56-2.05,2.79-3.83,3.29-.4.11-.66.26-.36.71.53.77.41,1.63.3,2.45-.11.79.02,1.16.94,1.21,2,.11,3.58,1.06,4.74,2.69.23.32.43.81.9.41,1.43-1.21,2.94-1.29,4.88-.01-.64-2.32-.52-4.06.3-5.73Zm-4.37-.51c1.22-.65,2.56-1,4.24-1.33-2.11-1.48-3.94-2.77-6.1-4.28.8,1.86,1.26,3.45,1.16,5.14-.03.49.12.78.7.47Zm.52,19.63c.17-.89.72-1.7.64-2.93-2.39,2.05-4.2,4.27-5.64,6.86,1.25-.61,2.56-.38,3.82-.5.87-.08,1.61-.13,1.09-1.39-.26-.62-.04-1.35.09-2.04Zm-1.34-52.56c2-.03,2.7-1.05,1.94-2.8-.32-.72-.62-1.45-.91-2.19-.26-.67-.6-.73-1.05-.18-.73.89-1.38,1.82-1.64,2.96-.29,1.26.46,2.23,1.66,2.21Zm1.64,62.43c-.36-.15-.69-.24-.99-.28-.4.02-.79.05-1.19.12-.43.15-.79.41-1.12.73-.71.68-1.35,1.56-.87,2.81,1.59-.83,2.45-2.38,4.17-3.38Zm-3.07-71.71c.18-.14.52-.39.48-.48-.38-.96-.69-2-1.29-2.81-.33-.44-1.1.11-1.59.36-8.29,4.09-16.21,8.64-21.91,16.27-.39.52-.77,1.05-1.13,1.58,0,.05-.02.09-.05.14-.14.22-.27.43-.4.65-.11.2-.23.4-.34.6-.01.02-.03.04-.05.06-.56.99-1.07,2.01-1.52,3.06-.21.61-.38,1.24-.5,1.89-.72,3.88-1.21,7.82-.34,11.81.82,3.7,2.26,6.91,5.73,8.84,1.33.74,2.06,1.35,3.49,1.88.76.28,1.54.49,1.88.54,1.11.16,3.77.24,4.51-.47,0,0-1.48-1.34-1.99-2.05-2.27-3.21-3.5-6.49-3.21-10.33.52-6.77,2.7-13.04,6.27-18.83,3.12-5.05,7.3-9.1,11.94-12.72Zm-.79,52.91c.31-.15.61-.29,1.25-.59-1.4-.47-2.45-.83-3.52-1.16-.21-.06-.5-.01-.7.09-.18.09-.12.33-.05.52.67,1.66,1.37,1.93,3.01,1.15Zm.23-28.1c.06-.7-.05-1.43.02-2.13-.13-2.24-.6-4.45-1.4-6.55.22,2.1.17,4.22-.16,6.3,0,.03,0,.05-.01.08,0,0,0,.01,0,.02-.1.6-.22,1.21-.36,1.8-.04.08-.06.16-.06.27,0,.02,0,.03-.01.05,0,.02,0,.03,0,.04-.03.32-.26.62-.37.92-.04.11-.07.23-.1.35-.02.02-.03.04-.05.06-.06.17-.11.34-.17.5-.07.2-.24.29-.4.29-.65-.21-.65-1.15-.62-1.87,0-.05.02-.1.02-.15.09-1,.11-2-.05-2.98-.11-.51-.25-1-.44-1.48-.02-.03-.03-.05-.05-.08-.13-.21-.28-.41-.45-.6-.18-.2-.38-.37-.6-.53-.09-.07-.19-.13-.28-.19-.07-.04-.13-.08-.2-.11-.01,0-.02,0-.03,0,.03.1.06.19.1.28.05.13.09.26.14.39.1.28.2.55.28.84.1.36.17.72.19,1.09.26,1.05-.06,2.06-.17,3.08-.04.38-.11.86-.59.93-.45.07-.68-.31-.9-.65-1.57-2.42-4.44-2.34-6.17.02-.78,1.07-.66,2.4-1.26,3.42-1.88,3.21-1.3,7.17,1.5,9.52,1.88,1.58,4.06,1.31,5.08-.57.14-.25.4-.5.17-.8-.17-.23-.45-.11-.69-.06-1.26.27-1.98-.47-2.5-1.43-1.26-2.34.41-5.27,3.02-5.46,1.29-.09,2.41.22,3.54.81.97.51,1.56,1.48,2.55,1.96v-.03s.02-.05.03-.07c.79-2.37,1.27-4.81,1.45-7.29Zm-1.24-35.12c.68-1,1.25-2.06,2.02-3.35-1.7.72-3.34.67-4.78,1.47-.56.31-.99.6-.72,1.21.33.75,1.05,1.2,1.8,1.4.64.17,1.31-.17,1.68-.72Zm-1.95,6.78c1.04.03,2.55-.79,2.43-1.41-.23-1.12-.48-2.23-.7-3.35-.07-.34-.02-.71-.57-.62-1.69.26-2.71-.74-3.42-2.03-.35-.64-.63-.42-1.04-.28-2.34.84-4.61,1.86-6.74,3.11-1.16.68-1.96,1.9-2.24,3.26-.57,2.78-1.26,5.54-2.54,8.06-1.07,2.11-2.32,4.21-4.95,4.81-1.34.31-3.18-.23-3.72-1.26-.66-1.25-.14-2.41.53-3.5.18-.3.4-.63.82-.47.34.13.3.46.24.76-.1.54.07.93.66.9.98-.05,1.48-.74,1.8-1.56.32-.79.65-1.69-.11-2.35-.68-.58-1.57-.31-2.23.13-1.28.85-2.43,1.84-3.11,3.32-1.18,2.55-2.02,5.23-3.05,7.84-1.18,2.99-3.54,5.99-7.52,4.83-.47-.14-.74-.03-.93.42-.15.35-.35.67-.55.99-.22.58-.42,1.17-.59,1.77-.12.43-.24.87-.36,1.31-.08.39-.14.78-.17,1.17,0,.04.02.07.04.1.04,0,.08,0,.13,0,.02-.01.04-.03.06-.04.2-.53.56-1.02.87-1.44.26-.36.59-.68.99-.78.36-.16.76-.25,1.18-.26,1.62-.03,3.18,1.2,3.47,2.72.3,1.62-.9,3.65-2.55,4.3-1.02.4-2.5-.12-3.42-1.11-.25-.18-.45-.42-.57-.72-.2-.48-.05-1.1-.26-1.58-.03,0-.07,0-.11,0-.02.03-.04.06-.06.1-.2.38-.26.85-.32,1.25-.02.1-.03.21-.04.31-.02.36-.02.73-.04,1.09,0,0,0,0,0,.01,0,.02,0,.05,0,.07,0,.03,0,.07,0,.1h0s0,.04,0,.06c0,.03,0,.06-.01.08-.32,3.15,0,6.25,1.08,9.28.61,1.71,1.03,3.5,1.96,5.07,2.09,3.53,4.88,6.46,7.96,9.12.91.4,1.86.59,2.83.69.62-.1,1.25.1,1.84.1,2.81-.04,5.2-.74,6.49-3.53.12-.26.29-.55.66-.5.36.05.42.36.47.66.68,3.65,3.05,6.02,6.04,7.91.75.47,3.93.25,4.7-.35-.64-.19-1.25-.36-1.84-.56-2.62-.86-3.47-2.23-3.12-4.96.16-1.29.61-2.5,1.02-3.72.13-.39.8-.68.38-1.15-.36-.41-.73-.16-1.26.06-1.45.62-2.91.48-4.34.33-.88-.09-1.73-.45-2.11-.56-1.11-.32-2.21-1.1-3.29-1.64.05,4.3-.76,5.37-4.42,6.07-1.46.28-3.33-.52-3.96-1.78-.61-1.22-.47-2.42.39-3.48.85-1.04,2.53-1.08,3.44-.13.76.79.56,2.18-.52,2.99-.55.41-1.19.68-1.9,1.05.05.12.16.21.29.29.18.07.35.14.53.21.13.04.26.06.35.08.43.1.89.13,1.33.11.58-.03,1.15-.17,1.68-.4,1.21-.82,1.79-1.98,1.91-3.47.13-1.51-.53-2.7-1.81-3.32-1.65-.8-3.47-1.15-5.32-.85-1.78.28-3.24,1.4-4.92,1.96-.26.08-.48.45-.75.11-.2-.25-.12-.56.05-.83.18-.29.37-.58.55-.87,1.51-2.53,1.72-5.04-.18-7.48-.87-1.12-2-1.91-3.35-2.36-.29-.1-.6-.16-.66-.5-.04-.22.13-.32.35-.38,3.44-.87,6.1-3.02,8.52-5.43,1.67-1.67,2.89-3.65,2.45-6.23-.22-1.3-.85-2.43-1.39-3.6-.72-1.54-.72-1.59.92-1.48,2.71.19,5.01-.39,6.47-2.97.36-.63.98-1.11,1.49-1.66,2.3-2.44,5.4-4.01,7.35-6.84,2.17-3.14,4.66-6.13,4.23-10.32-.03-.29-.09-.66.33-.69.34-.02.52.27.6.57.35,1.28,1.2,2.26,1.87,3.36.77,1.26,1.85,1.83,3.29,1.88Zm1.02,95.87c.2.08.36-.15.32-.32-.21-.96-.78-1.81-1.21-2.68-.46-.92-1.02-1.79-1.45-2.73-.95-2.07-.86-4.31-.86-6.53,0-.02,0-.03,0-.04.14-.36.09-.76-.02-1.13-.15-.49-.36-.95-.46-1.46-.11-.59-.24-1.17-.36-1.75-.25-1.23-.36-2.42-.08-3.65.03-.14-.06-.27-.17-.32-.31.25-.62.51-.92.76-.04.04-.07.08-.11.13-.02.04-.06.08-.1.12,0,0-.02.02-.03.02-.48.55-.95,1.12-1.47,1.64-.42.41-.88.84-1.4,1.12-.28.15-.59.27-.88.39-1.14.46-3.1,1.14-2.8,2.72-.02.08,0,.18.07.24.28.24.62.39.98.49.13.04.27.08.4.1.73.15,1.5.14,2.25.09.77-.06,1.54-.17,2.28-.41.23-.08.51-.17.75-.3-.08,1.2-.24,2.39-.23,3.59-.03.19-.05.39-.07.59-.02.07-.04.14-.06.21,0,.25-.03.51-.06.78,0,.04,0,.08.02.12-.02.1-.04.19-.06.29,0,.02-.01.04-.02.06-.12.76-.26,1.55-.19,2.28.15.66.49,1.26.96,1.83.72.88,1.71,1.33,2.68,1.86.49.27,1.11.49,1.43.97.27.4.41.74.89.93Zm-.98-38.52l-.58-.61c-1.58-.55-2.99-.8-4.48.1-.2.12-.55.19-.43.5.08.18.35.34.56.4,1.63.5,3.18.34,4.92-.39Zm-.96-1.83c.23-.46.26-1.16-.2-1.67l-4.35-2.77c-.68,1.11-.85,2.85-.51,4.15.19.72.44.83,1.1.56.79-.32,1.63-.27,2.47-.13.5.08,1.2.43,1.49-.13Zm-3.08-39.2c1.66-.03,2.12-.65,1.82-2.26-.28-1.48.45-2.92.84-4.67-2.81,2.36-4.49,5.16-6.38,7.84,1.25-.44,2.47-.88,3.72-.91Zm2.45-15.44c-1.23-.73-1.96-1.64-2.66-2.59-.2-.27-.38-.64-.79-.58-.45.07-.43.49-.47.82-.07.71-.44,1.31-.74,1.93-.71,1.47-1.6,2.84-2.41,4.34,2.3-1.32,4.53-2.69,7.07-3.92Zm-4.3,88.14c-.4-1.89.39-3.65.3-5.56-1.87.65-3.63.96-5.43.06,1.45,2.16,3.9,3.22,5.14,5.5Zm-2.12-36.89c.61,0,1.82-1.35,1.75-1.98-.06-.54-.61-.89-.92-.75-.93.42-.92,1.48-1.23,2.31-.11.3.1.44.4.42Zm.54,4.67c.65.19.56-.74.56-1.09-.02-.98-.56-1.84-1.46-2.19-.53-.21-.35.53-.47.9.19.94.28,2.07,1.37,2.39Zm-2.75,2.42c.01-.1-.03-.21-.12-.26-.76-.41-1.34-.99-1.96-1.58-.54-.51-1.08-1.01-1.58-1.55-1.06-1.14-1.8-2.46-2.01-4.02-.03-.24-.35-.38-.49-.13-.17.3-.27.62-.43.92-.19.38-.49.6-.83.83-.71.48-1.48.87-2.26,1.19-.81.33-1.63.56-2.51.57-1,.02-1.99-.17-2.96-.35-.1-.02-.18.02-.24.07-.08.04-.14.13-.15.23.99.82,2.2,1.34,3.39,1.81,1.34.53,2.71.97,4.11,1.32,2.63.66,5.34.97,8.05.96Zm-4.67-54.88c.74-2.49,1.57-4.96,2.46-7.74-2.65,1.52-5.09,2.78-7.39,4.27-2.37,1.54-4.41,3.5-6.44,5.47-3.6,3.49-6.8,7.28-8.99,11.83-.57,1.18-.28,1.6,1.07,1.57,1.9-.05,3.26-.99,4.26-2.57,1.53-2.4,2.22-5.15,3.19-7.78.89-2.41,2.1-4.58,4.44-5.88,1.17-.65,2.39-.85,3.42.2,1.19,1.21.54,2.5-.08,3.7-.6,1.17-1.55,1.77-2.95,1.4-.32-.08-.75-.61-.98.03-.16.45-.23.99.15,1.41.46.5,1.1.82,1.73.69,1.3-.27,2.6-.59,3.46-1.79,1.07-1.5,2.1-2.99,2.63-4.79Zm-6.99,13c.07-.15,0-.13-.14-.12-.13,0-.26.02-.39,0-.64-.05-1.36.33-1.97.15-.51-.04-1.02-.11-1.5-.13-.21,0-.31.24-.23.4,0,.04,0,.08.03.11.02.05.05.1.07.14,0,.02.01.03.02.05h0c.3.61.64,1.22.87,1.85.11.3.18.63.29.94,0,.01.01.03.02.05.03.08.06.17.1.25.03.19.07.38.09.57.02.08.05.16.08.24.02.02.04.04.05.07.02,0,.05,0,.08-.02.02-.02.04-.03.06-.03.07-.07.14-.15.16-.17.06-.08.11-.17.16-.26.16-.33.33-.66.5-.99.26-.6.6-1.16.96-1.7.08-.14.15-.28.23-.41,0-.04.02-.09.05-.14.16-.26.28-.54.4-.82Zm-2.46,30.93c.09-.71-.45-1.03-1-1-1.03.04-1.59.71-1.7,1.71-.06.58.09,1.1.95,1.11.87-.24,1.61-.76,1.75-1.82Zm-5.56-4.4c2.15-1.05,4.47-1.08,7.07-.1-3.1-5.13-3.94-10.27-3.33-15.79-1.06,1.09-2.08,2.08-3.21,2.97-1.18.92-2.45,1.68-3.82,2.29-1.13.5-1.12.98-.08,1.66,2.3,1.49,3.95,4.94,2.32,8.23-.07.13-.13.27-.17.41-.23.34-.43.69-.7,1-.02,0-.04.02-.06.04-.09.08-.18.17-.27.25-.03.06-.05.12-.07.18,0,.01,0,.03-.01.04.33,0,.7-.2.98-.33.16-.07.32-.15.47-.24.12-.09.24-.18.36-.27.17-.12.33-.23.5-.34Zm-2.45-17.05c.04-1.49-.68-2.34-2.02-2.36-1.56-.02-2.84,1.2-2.85,2.74-.02,1.47.74,2.44,1.94,2.5,1.52.08,2.88-1.26,2.93-2.89Z"/>
  <path class="cls-5" d="m100.99,39.73c1.97,4.83,3.65,9.73,3.47,15.06-.1,2.75-1.21,4.51-3.89,5.78-5.16,2.45-9.88,5.72-13.48,10.26-1.02,1.28-1.79,2.97-2.01,4.72-.24,1.99,1.45,4.22,3.19,4.37,2.01.17,4.27-1.75,4.48-3.78.03-.32.05-.59-.25-.79-.33-.22-.57-.03-.76.2-.43.52-1.04.82-1.51.34-.47-.49,0-1.13.31-1.62.84-1.32,2.33-1.87,3.24-1.24,1.1.76,1.22,2.34.38,3.75-1.44,2.39-3.69,3.97-5.7,5.78-.56.51-.9-.04-1.27-.3-2.44-1.74-4.45-1.57-6.47.65-.49-1.77-1.23-3.35-2.59-4.56-.55-.49-.06-.64.24-.86,2.4-1.83,4.76-3.72,6.92-5.85,2.36-2.32,4.01-5.16,6.05-7.71,1.31-1.64,2.75-3.14,4.28-4.54,1.26-1.15,2.94-1.36,4.59-1.51.33-.03.78.11.83-.38.04-.39-.31-.62-.66-.7-2.39-.54-2.83-2.34-3.2-4.44-.56-3.2.12-6.22.75-9.28.07-.34.2-.67.26-1.01.06-.33.17-.73-.27-.89-.38-.13-.51.22-.65.46-.46.79-1.17,1.34-1.82,1.95-.58.54-1.24.95-2.04,1.17-2.33.65-2.33.61-3.45-1.48-1.49-2.78-3.75-4.82-6.57-6.23-.7-.35-1.44-.61-2.21-1.22,2.07-.22,3.65-1.19,5.25-2.34,0,.74-.04,1.32,0,1.9.18,2.12,1.72,3.22,3.83,2.76.45-.1.89-.42,1.02.46.21,1.38.76,2.7,2.37,2.86,1.78.18,3.3-.57,4.45-1.95.53-.64.94-1.39,1.42-2.13.77.61,1.14,1.49,1.48,2.34Z"/>
  <path class="cls-6" d="m102.95,3.89c.34.57-.2,1.35-.65,1.88,0,.04-.01.08-.04.13-.43.69-1.01,1.35-1.71,1.8-.06.05-.12.09-.18.14-.18.14-.36.28-.55.41-.65.39-1.32.74-2,1.06,0,0-.01,0-.02,0-.04,0-.08.02-.11.04-.01,0-.02.02-.04.02-.22.1-.45.2-.67.3-.25.02-.44-.07-.61-.2-.17-.22-.3-.5-.46-.67-.37-.38.27-.51.51-.65,2.06-1.19,3.95-2.6,5.54-4.38.19-.21.34-.52.7-.44.33.07.26.36.28.49,0,.02,0,.05,0,.07Z"/>
  <path class="cls-3" d="m102.34,60.38c.3-.19.65-.2,1.05-.01-1.71,4.64-3.86,9.05-6.78,13.06-.57.78-.93,1.08-1.52.02-.57-1.02-1.6-1.74-2.69-1.49-1.34.31-2.58,1.12-3.08,2.55-.35.98-.21,1.93.98,2.27,1.17.34.75.82.16,1.28-.85.66-1.75,1.49-2.93.85-1.42-.78-1.91-2.39-1.31-4.02,1.15-3.11,3.22-5.55,5.74-7.64,3.22-2.66,6.87-4.66,10.38-6.88Z"/>
  <path class="cls-3" d="m101.67,7.64s.04.07.03.12c0,0,0,.01,0,.02-.56.93-1.41,1.69-2.11,2.5-.98,1.14-1.85,2.37-2.59,3.67-.06.06-.13.12-.19.17-.82.73-2.24,1-3.31.56-1.35-.56-2.43-2.36-2.17-3.55.25-1.18,1.16-1.66,2.16-1.69.53-.02,1.18-.16,1.7.07.06,0,.13.02.19.09.01.01.02.03.04.04.14.1.26.24.37.43.24.26.52.5.85.56.63.11,1.32-.53,1.84-.82.37-.21.71-.47,1.05-.72.01,0,.02,0,.04-.02.73-.44,1.44-.92,2.12-1.43Z"/>
  <path class="cls-4" d="m98.53,36.12c.48.55-.52,2.51-1.61,3.2-.66.42-1.4.76-2.15.99-1.67.53-2.48-.14-2.43-2.07,0,0-.07-.14-.08-.28-.15-1.8-.14-1.79-1.76-1.05-.82.37-1.67.65-2.49-.03-.97-.81-1.11-1.8-.7-2.94.76-2.1,2.36-3.36,4.22-4.4.7-.39,1.22-.15,1.74.32,2.02,1.86,3.48,4.19,5.27,6.25Z"/>
  <path class="cls-6" d="m96.71,44.06c-.91,4.8-1.19,9.1,1.54,13.06-2.77.4-4.36,2.48-6.36,4.66,1.2-4.64,1.44-8.94.32-13.25-.09-.33-.16-.69-.32-.99-.43-.84-.16-1.39.71-1.51,1.41-.19,2.64-.75,4.11-1.97Z"/>
  <path class="cls-4" d="m91.65,14.34s-.02.06-.07.07c-.05.01-.09.02-.14.03-.58,0-1.17.04-1.74.14-.34.06-.67.14-1,.24-.04.01-.08.03-.13.05-.12.03-.25.06-.37.1-.14,0-.2-.06-.22-.14.12-.21.29-.4.47-.57.02-.02.04-.04.06-.06.12-.13.26-.25.39-.36.1-.13.22-.23.34-.33.15-.12.28-.24.4-.4.11-.14.2-.28.3-.42.07-.08.14-.16.21-.25.06-.08.14-.2.22-.26.18-.14.28-.04.35.13.09.42.29.8.39,1.22.05.08.1.16.16.24.06.08.12.16.18.24.02.03.14.19.21.31Z"/>
  <path class="cls-1" d="m90.3,10.03c.21-.09.42.21.3.39-.85,1.26-1.94,2.34-2.9,3.52-.77.95-1.55,2.08-2.65,2.66-.54.29-1.13.49-1.69.74-.63.28-1.21.63-1.84.91-.8.35-1.59.7-2.39,1.06-.03,0-.07.02-.1.03-1.75.78-3.59,1.33-5.47,1.64,1.33-.67,2.69-1.51,3.42-2.85.45-.81.55-1.69.33-2.59-.03-.14-.07-.29-.11-.44,0-.03-.01-.06-.03-.09,0,0,0-.02-.01-.03-.05-.15-.11-.29-.19-.42-.18-.37-.38-.72-.62-1.05-.06-.11-.13-.21-.21-.31.63,0,1.23-.06,1.81-.32.14-.06.27-.03.36.09.58.88,1.72,1.32,2.75,1.23,1.27-.11,1.86-1.19,2.65-2.03.77-.82,1.77-1.05,2.85-1.23,1.25-.21,2.56-.41,3.73-.9Z"/>
  <path class="cls-5" d="m91.24,28.35c-1.43,1.02-2.63,1.79-3.85,3.23.1-2.06.05-3.68-1.33-4.98,1.79.32,3.19,1.43,5.17,1.74Z"/>
  <path class="cls-4" d="m86.57,82.64c.66.43.76.87.11,1.39-.96.77-1.91,1.57-2.9,2.31-.48.36-.94.99-1.69.55-.66-.39-.63-1.06-.62-1.78.07-1.11.23-2.26,1.44-2.83,1.26-.59,2.5-.41,3.66.35Z"/>
  <path class="cls-1" d="m85.96,29c.08.33.09.67.07,1-.03.32-.1.63-.18.95-.31,1.16-.91,2.37-1.92,3.07-.99.68-2.32.88-3.5.89-.67,0-1.41-.05-2.1-.24-.86-.66-1.63-1.41-2.3-2.25.78.06,1.53.48,1.94,1.17.15.26.61.37.78.05.77-1.45,2.71-1.79,3.86-.57.33.35,1.04-.05.74-.5-.53-.81-1.4-2.46-.31-3.15.03,0,.07-.02.1-.04.43-.23.86-.46,1.28-.69.06-.03.1-.07.13-.11.2-.11.39-.21.59-.32.05,0,.11-.01.17-.03.02,0,.05-.02.07-.03.35-.08.52.57.57.81Z"/>
  <path class="cls-1" d="m85.15,26.91c-.02.15-.07.28-.18.39-.02.02-.03.03-.04.05-.69.37-1.38.75-2.06,1.14-.02,0-.03,0-.05.01-.21.08-.43.13-.66.16-.05-.02-.1-.03-.16-.03-1.39-.03-2.66-.82-3.29-2.06,0-.01-.01-.02-.02-.03,0-.31,0-.62-.04-.92.58-.05,1.16-.1,1.74-.11,1.65-.05,3.6.14,4.75,1.41Z"/>
  <path class="cls-5" d="m83.85,44.71c.94-.19,1.12.05,1.07.89-.07,1.05-.33,2.05-.75,3.01-1.21,2.77-2.93,5.22-4.81,7.55-.15.31-.31.61-.5.9,0,.01-.02.03-.03.04-.09.22-.18.44-.28.66-.18.4-.39.78-.6,1.17-.19.42-.42.84-.61,1.26-.89,2.99-1.06,6.16-2.38,9.04-.58,1.26-1.17,2.51-1.9,3.69-.42.68-.76.73-1.37.27-1.55-1.15-3.12-2.25-4.88-3.51.9-.06,1.78-.08,2.57-.3.19-.05.56-.17.75-.23.57-.2,1.07-.55,1.52-1.04.34-.37,1.03-.69.76-1.32-.29-.68-.87-.11-1.31-.08-1.76.13-3.06-.81-3.48-2.55-.24-.98.04-1.63.57-2.14.33-.31.78-.8,1.13-.97.1-.05.25-.15.36-.19.21-.08.31-.19.5-.28,0-.02,0-.05,0-.07-.07-.16-.23-.36-.28-.44-.09-.13-.19-.25-.28-.37-.45-.45-.45-.4-.78-.61-.03-.02-.48-.23-.5-.26-.62-.3-1.03-.18-1.72-.14-1.09.05-2.1.48-3.01,1.05-.03.02-.05.03-.08.05-.86.64-1.1,1.08-1.46,1.99-.04.15-.13.53-.16.68-.19,1.34-.13,2.26.53,3.82-1.08-.94-1.61-1.78-2.13-2.61-.43-.67-.04-1.53.27-2.47.13-.54.56-1.01.91-1.44-.01,0-.03.02-.04.02,1.48-2.01,2.96-4.03,4.45-6.04.05-.41.58-.84.85-1.16.2-.27.41-.55.61-.83,0,.01,0,.03,0,.04,0,.6.15,1.14.49,1.69.28.66.65,1.28,1.14,1.78.13.13.27.25.42.35.28.36.65.63,1.11.7.54.08,1.09-.16,1.37-.62.36-.22.77-.32,1.23-.21.56.14.93.5,1.03,1.12.12.76-.02,1.37-.36,1.89-.05.04-.09.09-.12.16-.17.43-.4.84-.67,1.22-.02.03-.03.05-.04.08-.33.13-.31.69.11.73.56.04,1.11,0,1.65-.1.29,0,.58-.04.85-.18.54-.24.98-.72,1.44-1.14l.35-.6c.13-.3.26-.6.4-.89.05-.1.1-.19.16-.29.14-.38.28-.75.35-1.15,0-.05.03-.09.05-.12,0-.07.02-.14.04-.2.16-1.11.25-2.21-.26-3.36-1.51-3.46-5.09-4.85-8.47-3.17-.16.08-.29.29-.6.08.32-.4.41-.96.69-1.39.04-.13.09-.25.12-.38l.08-.58c.01-.09.09-.15.17-.18.18.23.37.45.57.65.04.04.07.07.11.11.06.06.13.12.19.18.28.26.74-.13.45-.4-.07-.06-.13-.12-.19-.18-.04-.04-.07-.07-.11-.11-.05-.05-.1-.1-.14-.15-.1-.17-.24-.35-.31-.47-2.12-3.74-4.06-7.58-5.89-11.47-.66-1.4-.06-3.95,1.11-4.55.34-.17.81-.59,1.09-.04.02.2.04.42-.12.49-.26.12-.58.16-.86.24-.13.04-.18.15-.17.25-.03.08-.02.17.03.24.66.89,1.89,1.05,2.75.43.07-.03.14-.07.21-.1,1.55-2.22.27-5.7-2.35-6.32-.77-.18-1.55-.23-2.36-.15-.75.08-1.62.28-2.06-.69-.42-.92-.81-1.83-.05-2.78.64-.8,1.38-1.28,2.45-.86.28.11.62.25.82-.04.19-.27-.05-.55-.18-.81-.92-1.87-.61-2.49,1.49-2.75,1.09-.13,2.19-.05,3.1.71.76.64,1.71.92,2.8,1.44-1.67.78-3.22,1.16-4.84,1.39-.48.07-1.24-.03-1.36.64-.11.6.6.75.99.96,2.31,1.2,3.93,2.98,5.27,4.99.17.37.35.74.52,1.12.01.02.02.05.04.07.01.04.03.07.05.1.35.92.79,1.8,1.32,2.63,0,0,0,0-.01,0,.37.36.66.81.93,1.26.04.05.08.1.12.15.12.25.24.49.37.74.28.29.56.59.84.88l-.02-.02c.1.11.19.23.29.34,1.04.89.64,2.02.33,2.99-.77,2.34-1.52,4.7-2.77,6.86-.19.33-.52.68-.25,1.09.28.42.73.18,1.1.11,2.82-.47,5.65-.92,8.45-1.49Z"/>
  <path class="cls-1" d="m83.97,42.74c.18.35.3.9-.53,1.03-2.51.39-4.73.68-7.19,1.13-.22.04-.47.06-.24-.38.13-.24.27-.61.54-1.16.54-1.05,1.79-3.28,2.13-5.34,0-.2.08-.36.2-.44,0,0,.14-.05.36.13.36.27.41.37,1.25,1.05,1.37,1.29,2.28,1.68,3.48,3.98Z"/>
  <path class="cls-3" d="m78.29,28.1c.91.97,2.21,1.49,3.53,1.46-.11.25-.17.53-.2.8-.03.41.04.81.18,1.19-1.23-.36-2.61,0-3.46,1.04-.75-.81-1.87-1.21-2.96-1.07-.18-.27-.35-.54-.51-.82-.14-.38-.26-.77-.37-1.16,1.42.17,2.85-.37,3.78-1.46Z"/>
  <path class="cls-6" d="m79.17,12.38c1.27-.37,2.45-.68,3.9-.72q-2.03,2.24-3.9.72Z"/>
  <path class="cls-5" d="m77.97,79.28c2.08,2.17,2.45,4.77,1.4,7.58-1.24,3.3-3.29,5.83-6.55,7.23-.37.07-.75,0-1.07-.19-.98-1.45-.84-3.5.4-4.81.63-.67,1.36-.7,2.13-.3.78.4.79.4.88-.45.18-1.9-.96-3.36-2.99-3.48-1.06-.06-1.96-.39-2.94-.64-4.53-1.17-9.45-2.26-13.52-4.56-.93-.52-1.99-1.18-3.24-2.26-1.13-.97-1.93-2.1-2.94-3.12-.82-.83-1.35.04-3.42-3.15-2.67-4.12-3.2-8.16-2.22-12.64.78-3.56,1.66-7.1,3.22-10.44,1.18-2.53,4.89-4.8,7.66-4.29,1.33.24,1.27-.15,1.16-1.21-.51-4.58,1.34-8.19,4.81-11.05.32-.27.88-1.05,1.31-.3.33.58.92,1.38.13,2.12-.81.76-1.45,1.63-1.9,2.64-.7,1.59-.52,3.08.57,3.97,1.19.98,2.56.7,3.61-.05,1.27-.91,1.67-.31,2.11.72.36.86.74,1.71,1.23,2.5-.02.01-.04.03-.06.05-.01.01-.02.03-.04.04,0,0,0,0,0,0-1.77,1.99-3.28,4.19-4.5,6.55-.21.25-.38.52-.53.81,0,0,0,0-.01,0-.34.63-.63,1.3-1,1.86-.12.05-.23.04-.3-.14-.07-.17-.12-.34-.16-.52v-.19c-.4-3.33-1.52-6.56-3.3-9.41-.01-.02-.02-.03-.03-.05-.25-.4-.97-.23-.84.26,0,.05.02.1.05.15,1.11,3.41,1.35,7.06.72,10.57-.02.05-.03.1-.05.14,0-.16,0-.31,0-.47-.07-2.32-1.41-3.73-3.4-4.63-.37-.17-.88-.53-1.21-.11-.29.37.2.7.4,1.02.91,1.46,1.24,3,.75,4.8-1.02-.56-1.86-1.35-3.05-1.41-2.55-.13-4.09,1.12-5.29,3.46-1.26,2.44-1.88,5.1-1.55,7.91.37,3.2,3.78,6.31,6.64,6.07,2.64-.22,3.74-3.31,3.37-5.27-.11-.57-.52-.71-.9-.1-.16.25-.33.5-.54.71-.48.47-1.09.83-1.73.57-.64-.26-.82-.9-.85-1.61-.15-3.11,2.22-4.71,5.02-3.29,1.91.97,3.75,2.13,3.83,4.65.09,2.63-2.12,4.96-4.79,5.08-.36.02-.87-.26-1.02.27-.13.44.4.48.64.7,1.16,1.03,1.26,2.47.33,4.35-.19.39-.86.77-.3,1.28.49.43.77-.2,1.12-.4,1.99-1.15,5.19.39,6.06,2.94.14.42.18.87.29,1.3.07.27.3.38.55.42.35.04.34-.23.42-.47.97-2.82,2.63-3.18,4.77-1.04.34.34.67.74,1.36.56-.25-.9-.49-1.8-.74-2.68-.48-1.69-.04-3.22.73-4.73.33-.64.56-.78,1.2-.32,2.82,2.03,5.71,3.98,8.13,6.5Z"/>
  <path class="cls-1" d="m77.74,25.81c0,.2,0,.4.02.6-.14,1.09-1.07,1.84-2.11,2.22-.53.1-1.1.07-1.66-.1-.24-.37-.44-.76-.65-1.15-.04-.09-.08-.18-.12-.27-.1-.22-.22-.44-.3-.67-.07-.19-.07-.09.04-.2.06-.06.2-.09.28-.12.03-.01.06-.03.08-.05.58-.11,1.16-.2,1.74-.26.89-.03,1.78-.03,2.68,0Z"/>
  <path class="cls-4" d="m74.25,49.84c2.11.86,3.47,2.86,3.35,4.97-.08,1.51-.42,2.87-1.33,3.9-.06.02-.12.06-.17.12-.51.61-1.32.77-2.09.86.14-.26.27-.53.38-.81,0,0,0-.01,0-.02.25-.35.5-.72.58-1.18.34-2.06-1-3.39-3.08-2.96-.56.11-1.14.93-1.58.4-.71-.84-1.74-1.51-1.95-2.72-.07-.42.01-.76.3-1.09,1.14-1.32,4.03-2.09,5.58-1.46Z"/>
  <path class="cls-6" d="m74.6,13.63c1.21.93,1.83,3.19,1.12,4.26-.85,1.27-2.94,1.64-4.4.7-1.35-.87-2.65-1.72-4.36-1.62-1.19.07-2.17.64-3.21,1.09-.29.13-.57.41-.42.69.74,1.38-.21,1.72-1.17,2.34-1.1.71-2.11,1.69-1.44,3.33.62,1.54,1.57,2.27,3.44,2.09,2.51-.25,3.81.53,4.21,2.53.22.4.31.88.29,1.39-.01.4-.04.86-.33,1.17-.24.24-.56.33-.89.35-.02,0-.05.02-.08.02-.04,0-.08.01-.11.02-.02,0-.03,0-.05,0,0,0-.02,0-.03.01-.16.04-.32.02-.47-.05-.06-.03-.09-.09-.09-.15.05-.02.1-.03.15-.05.29-.03.56-.12.72-.39.11-.18.13-.36.1-.55,0-.19-.08-.4-.13-.59-.03-.06-.07-.11-.11-.16-1.65-.73-2.64-.04-3.61,2.29-.48-.14-.45-.61-.54-.95-.54-2.16-1.65-4.09-2.73-5.97-1.99-3.46.19-7.78,3.16-9.12,1.52-.69,2.85-1.79,4.63-1.86.69-.03,1.08,0,1.27.8.27,1.17,1.2,1.62,2.29,1.27,1.03-.33,1.64-1.11,1.2-2.31-.1-.27-.37-.55.06-.72.52-.21,1.02-.25,1.53.14Z"/>
  <path class="cls-6" d="m73.36,86.09c.61.37.83.99.79,1.49-.05.75-.79.29-1.21.32-.57.04-1.04.21-1.49.56-1.39,1.08-1.88,3.63-1.02,4.91-.01.07,0,.15.04.23.47.85,1.33,1.29,2.2,1.24-.05.21-.22.41-.44.62-1.4,1.34-2.96,2.45-4.56,3.54-1.11.76-2.18,1.48-3.39,1.88-1.08-.09-2.16-.01-3.22.23-.11.03-.2.08-.25.15-1.28.4-2.19,2-2.06,3.58.11,1.3-.11,2.17-1.33,2.76-.38.18-.72.57-.93.94-.33.57-.59.25-.68-.04-.97-3.02-.73-7.39,1.83-10.13,1.81-1.93,4.06-2.11,6.41-1.86,1.02.11,1.38.06,1.02-1.08-.7-2.27-.17-4.38,1.17-6.29.51-.73,1.09-1.41,1.7-2.06,1.34-1.44,3.97-1.86,5.42-.98Z"/>
  <path class="cls-4" d="m72.15,14.89c.05.61-.41.83-1.02.86-.72-.04-.93-.58-.95-1.21-.02-.54.33-.78.86-.78.75,0,1.07.51,1.11,1.13Z"/>
  <path class="cls-6" d="m69.23,60.3c-.09.18-.36.27-.54.4-.52.37-1.17.84-1.59,1.36-1.16,2.52-.21,4.88,3.95,5.43-1.13,1.55-3.45,1.67-5.12.79-3.15-1.67-3.71-3.75-2.98-6.13.16-.53.34-.88.41-1.12.3-.43.34-.48.78-.77.18-.12.63-.33.64-.37.55-.24,1.02-.31,1.58-.42.44-.08.7-.06,1.2-.06.58.12,1.25.47,1.68.88Z"/>
  <path class="cls-4" d="m66.84,72.22c.68-.1,1.14-.02.72.83-.82,1.67-.94,3.41-.3,5.73-1.94-1.28-3.45-1.2-4.88.01-.47.4-.67-.09-.9-.41-1.16-1.63-2.74-2.58-4.74-2.69-.91-.05-1.04-.42-.94-1.21.11-.83.23-1.69-.3-2.45-.31-.44-.05-.59.36-.71,1.79-.5,2.95-1.73,3.83-3.29.14-.24.2-.62.57-.58.35.04.37.43.49.68.76,1.62.8,3.35.73,5.1-.01.33-.16.72.21.95.43.27.76-.01,1.07-.27,1.19-.97,2.57-1.46,4.06-1.69Z"/>
  <path class="cls-4" d="m64.36,89.24c.08,1.23-.47,2.04-.64,2.93-.13.69-.35,1.42-.09,2.04.52,1.25-.22,1.31-1.09,1.39-1.26.11-2.56-.11-3.82.5,1.45-2.59,3.25-4.81,5.64-6.86Z"/>
  <path class="cls-4" d="m64.32,36.8c.77,1.75.06,2.77-1.94,2.8-1.2.02-1.94-.94-1.66-2.21.26-1.14.91-2.07,1.64-2.96.45-.55.79-.5,1.05.18.28.74.59,1.46.91,2.19Z"/>
  <path class="cls-4" d="m63.02,101.75c.31.04.64.13.99.28-1.72,1-2.57,2.55-4.17,3.38-.48-1.25.16-2.13.87-2.81.33-.31.69-.58,1.12-.73.39-.06.79-.1,1.19-.12Z"/>
  <path class="cls-4" d="m61.4,82.64c-.64.3-.95.45-1.25.59-1.64.78-2.34.51-3.01-1.15-.08-.19-.14-.43.05-.52.2-.1.49-.15.7-.09,1.07.33,2.12.69,3.52,1.16Z"/>
  <path class="cls-3" d="m60.39,53c-.06.7.05,1.43-.02,2.13-.18,2.48-.66,4.93-1.45,7.29,0,.02-.01.05-.02.07v.03c-.99-.49-1.59-1.46-2.56-1.96-1.13-.59-2.26-.9-3.54-.81-2.61.19-4.28,3.12-3.02,5.46.52.96,1.24,1.7,2.5,1.43.24-.05.52-.17.69.06.23.3-.04.54-.17.8-1.02,1.87-3.2,2.15-5.08.57-2.8-2.35-3.38-6.31-1.5-9.52.6-1.02.47-2.35,1.26-3.42,1.72-2.36,4.59-2.44,6.17-.02.22.34.45.73.9.65.48-.08.54-.55.59-.93.11-1.02.43-2.04.17-3.08-.02-.37-.08-.73-.19-1.09-.08-.28-.18-.56-.28-.84-.05-.13-.09-.26-.14-.39-.03-.09-.07-.19-.1-.28,0,0,.02,0,.03,0,.07.04.13.07.2.11.1.06.19.12.28.19.22.16.41.33.6.53.17.19.32.39.45.6.02.03.03.05.05.08.19.48.34.98.44,1.48.17.98.14,1.98.05,2.98,0,.05-.01.1-.02.15-.03.72-.03,1.65.62,1.87.17,0,.33-.09.4-.29.06-.17.12-.34.17-.5.02-.02.03-.04.05-.06.03-.12.06-.23.1-.35.11-.29.34-.6.37-.92,0-.02,0-.03,0-.04,0-.02,0-.03.01-.05,0-.1.03-.19.06-.27.14-.6.26-1.2.36-1.8,0,0,0-.01,0-.02,0-.03,0-.05.01-.08.33-2.08.38-4.2.16-6.3.8,2.09,1.27,4.3,1.4,6.55Z"/>
  <path class="cls-4" d="m61.16,16.66c-.77,1.29-1.34,2.35-2.02,3.35-.37.54-1.03.89-1.68.72-.75-.2-1.48-.65-1.8-1.4-.27-.61.16-.9.72-1.21,1.44-.8,3.08-.75,4.78-1.47Z"/>
  <path class="cls-5" d="m59.61,25.38c.12.62-1.38,1.44-2.43,1.41-1.44-.05-2.52-.62-3.29-1.88-.67-1.1-1.53-2.08-1.87-3.36-.08-.3-.26-.59-.6-.57-.42.03-.36.4-.33.69.42,4.2-2.06,7.19-4.23,10.32-1.95,2.82-5.05,4.4-7.35,6.84-.51.54-1.13,1.02-1.49,1.66-1.46,2.58-3.76,3.16-6.47,2.97-1.63-.11-1.63-.06-.92,1.48.54,1.17,1.17,2.3,1.39,3.6.44,2.57-.78,4.56-2.45,6.23-2.43,2.41-5.09,4.56-8.52,5.43-.22.06-.39.16-.35.38.06.34.37.4.66.5,1.35.44,2.48,1.24,3.35,2.36,1.9,2.44,1.68,4.95.18,7.48-.18.3-.37.58-.55.87-.17.27-.25.58-.05.83.27.34.5-.02.75-.11,1.68-.56,3.14-1.68,4.92-1.96,1.86-.29,3.67.05,5.32.85,1.28.62,1.94,1.81,1.81,3.32-.13,1.48-.7,2.65-1.91,3.47-.53.23-1.1.37-1.68.4-.44.02-.9,0-1.33-.11-.1-.02-.22-.05-.35-.08-.17-.07-.35-.14-.53-.21-.13-.08-.23-.17-.29-.29.71-.37,1.35-.64,1.9-1.05,1.08-.81,1.28-2.2.52-2.99-.92-.95-2.6-.91-3.44.13-.86,1.06-1,2.27-.39,3.48.63,1.26,2.5,2.06,3.96,1.78,3.65-.7,4.47-1.77,4.42-6.07,1.08.53,2.17,1.32,3.29,1.64.39.11,1.23.46,2.11.56,1.43.15,2.89.29,4.34-.33.53-.23.9-.48,1.26-.06.41.47-.26.76-.38,1.15-.41,1.23-.85,2.43-1.02,3.72-.34,2.73.51,4.1,3.12,4.96.6.2,1.2.36,1.84.56-.77.6-3.95.82-4.7.35-2.99-1.89-5.36-4.26-6.04-7.91-.06-.3-.11-.61-.47-.66-.36-.05-.54.24-.66.5-1.29,2.8-3.67,3.49-6.49,3.53-.6,0-1.23-.2-1.84-.1-.97-.1-1.93-.3-2.83-.69-3.07-2.66-5.87-5.59-7.96-9.12-.93-1.57-1.35-3.36-1.96-5.07-1.09-3.03-1.4-6.13-1.08-9.28,0-.03,0-.06.01-.08,0-.02,0-.04,0-.06h0s0-.07,0-.1c0-.02,0-.05,0-.07,0,0,0,0,0-.01.03-.36.02-.73.04-1.09.01-.1.02-.21.04-.31.06-.4.12-.87.32-1.25.02-.03.04-.06.06-.1.04,0,.07,0,.11,0,.21.47.05,1.09.26,1.58.13.3.32.54.57.72.92.99,2.4,1.52,3.42,1.11,1.64-.65,2.85-2.69,2.55-4.3-.28-1.52-1.85-2.74-3.47-2.72-.42,0-.82.1-1.18.26-.4.1-.73.43-.99.78-.31.42-.67.92-.87,1.44-.02.02-.04.03-.06.04-.04,0-.09,0-.13,0-.02-.03-.03-.07-.04-.1.03-.39.1-.78.17-1.17.11-.44.24-.88.36-1.31.17-.6.36-1.19.59-1.77.2-.32.4-.65.55-.99.19-.45.46-.56.93-.42,3.97,1.16,6.33-1.84,7.52-4.83,1.03-2.61,1.87-5.29,3.05-7.84.68-1.47,1.83-2.47,3.11-3.32.66-.44,1.55-.71,2.23-.13.77.66.43,1.56.11,2.35-.33.82-.83,1.51-1.8,1.56-.59.03-.76-.36-.66-.9.06-.3.1-.63-.24-.76-.42-.16-.63.18-.82.47-.67,1.09-1.19,2.24-.53,3.5.54,1.03,2.38,1.56,3.72,1.26,2.63-.6,3.88-2.71,4.95-4.81,1.28-2.52,1.97-5.28,2.54-8.06.28-1.36,1.08-2.58,2.24-3.26,2.13-1.26,4.4-2.27,6.74-3.11.4-.15.69-.37,1.04.28.7,1.3,1.73,2.3,3.42,2.03.56-.09.5.28.57.62.22,1.12.48,2.23.7,3.35Z"/>
  <path class="cls-1" d="m58.53,122.33c.04.18-.12.4-.32.32-.48-.19-.62-.53-.89-.93-.33-.48-.94-.7-1.43-.97-.97-.53-1.96-.99-2.68-1.86-.47-.57-.81-1.17-.96-1.83-.07-.72.07-1.52.19-2.28,0-.02.01-.04.02-.06.02-.1.04-.19.06-.29,0-.04-.01-.08-.02-.12.03-.27.06-.53.06-.78.02-.07.04-.14.06-.21.02-.2.04-.39.07-.59-.01-1.2.15-2.39.23-3.59-.24.14-.52.23-.75.3-.73.24-1.51.35-2.28.41-.74.06-1.51.06-2.25-.09-.13-.03-.27-.06-.4-.1-.36-.09-.7-.24-.98-.49-.08-.07-.09-.16-.07-.24-.3-1.58,1.66-2.26,2.8-2.72.3-.12.6-.23.88-.39.52-.28.98-.71,1.4-1.12.52-.52.99-1.08,1.47-1.64,0,0,.02-.02.03-.02.04-.04.08-.08.1-.12.04-.04.07-.08.11-.13.3-.26.61-.51.92-.76.12.05.2.17.17.32-.28,1.24-.18,2.43.08,3.65.12.58.25,1.17.36,1.75.1.51.32.97.46,1.46.11.37.16.77.02,1.13,0,.01,0,.03,0,.04,0,2.22-.09,4.47.86,6.53.43.94.99,1.8,1.45,2.73.43.87,1,1.73,1.21,2.68Z"/>
  <path class="cls-4" d="m56.65,83.53l.58.61c-1.74.73-3.3.89-4.92.39-.21-.07-.49-.22-.56-.4-.13-.31.23-.38.43-.5,1.49-.9,2.91-.65,4.48-.1Z"/>
  <path class="cls-6" d="m56.07,80.64c.45.51.43,1.21.2,1.67-.28.56-.99.21-1.49.13-.85-.14-1.68-.19-2.47.13-.66.27-.91.17-1.1-.56-.34-1.29-.16-3.04.51-4.15l4.35,2.77Z"/>
  <path class="cls-6" d="m55,40.85c.3,1.61-.16,2.23-1.82,2.26-1.25.02-2.47.47-3.72.91,1.89-2.67,3.57-5.47,6.38-7.84-.39,1.76-1.11,3.19-.84,4.67Z"/>
  <path class="cls-4" d="m52.98,25.08c.7.95,1.43,1.86,2.66,2.59-2.54,1.23-4.77,2.6-7.07,3.92.82-1.49,1.7-2.87,2.41-4.34.3-.62.67-1.22.74-1.93.03-.33.02-.75.47-.82.41-.06.59.31.79.58Z"/>
  <path class="cls-4" d="m51.64,110.25c.09,1.91-.7,3.67-.3,5.56-1.23-2.27-3.69-3.34-5.14-5.5,1.8.9,3.57.58,5.43-.06Z"/>
  <path class="cls-4" d="m50.96,76.93c.07.64-1.14,1.99-1.75,1.98-.31.02-.52-.12-.4-.42.31-.83.3-1.89,1.23-2.31.32-.14.86.21.92.75Z"/>
  <path class="cls-4" d="m50.32,82.49c0,.36.1,1.28-.56,1.09-1.09-.31-1.19-1.45-1.37-2.39.12-.38-.06-1.11.47-.9.89.35,1.43,1.21,1.46,2.19Z"/>
  <path class="cls-1" d="m46.89,85.74c.1.05.14.16.12.26-2.71.02-5.42-.3-8.05-.96-1.4-.35-2.77-.79-4.11-1.32-1.19-.47-2.4-.99-3.39-1.81.01-.1.07-.19.15-.23.06-.06.14-.09.24-.07.98.18,1.96.36,2.96.35.88-.01,1.7-.24,2.51-.57.79-.32,1.56-.71,2.26-1.19.34-.23.64-.45.83-.83.15-.3.26-.63.43-.92.14-.25.46-.1.49.13.21,1.56.95,2.88,2.01,4.02.5.54,1.04,1.05,1.58,1.55.62.59,1.2,1.16,1.96,1.58Z"/>
  <path class="cls-3" d="m44.8,23.37c-.89,2.79-1.72,5.25-2.46,7.74-.53,1.8-1.57,3.29-2.63,4.79-.86,1.2-2.16,1.52-3.46,1.79-.63.13-1.27-.19-1.73-.69-.39-.42-.32-.96-.15-1.41.24-.64.67-.11.98-.03,1.39.37,2.34-.23,2.95-1.4.62-1.2,1.27-2.49.08-3.7-1.03-1.05-2.26-.84-3.42-.2-2.34,1.3-3.55,3.47-4.44,5.88-.97,2.63-1.66,5.38-3.19,7.78-1,1.57-2.37,2.52-4.26,2.57-1.35.03-1.64-.39-1.07-1.57,2.19-4.55,5.39-8.34,8.99-11.83,2.03-1.97,4.08-3.93,6.44-5.47,2.29-1.49,4.74-2.75,7.39-4.27Z"/>
  <path class="cls-1" d="m35.21,44c.15,0,.2-.03.14.12-.12.28-.24.55-.4.82-.03.05-.04.09-.05.14-.08.14-.15.28-.23.41-.37.54-.7,1.11-.96,1.7-.17.33-.34.66-.5.99-.05.09-.1.17-.16.26-.02.03-.09.1-.16.17-.02,0-.04.02-.06.03-.03.02-.06.03-.08.02-.01-.03-.03-.05-.05-.07-.03-.08-.05-.16-.08-.24-.02-.19-.06-.38-.09-.57-.04-.08-.07-.16-.1-.25,0-.02,0-.03-.02-.05-.11-.31-.18-.63-.29-.94-.23-.63-.57-1.24-.87-1.85h0s-.02-.03-.02-.05c-.02-.05-.05-.1-.07-.14-.02-.04-.03-.07-.03-.11-.08-.16.02-.41.23-.4.48.02.99.09,1.5.13.62.18,1.33-.2,1.97-.15.13.02.26,0,.39,0Z"/>
  <path class="cls-4" d="m31.89,74.04c.55-.02,1.09.29,1,1-.14,1.07-.87,1.58-1.75,1.82-.86-.01-1.01-.54-.95-1.11.1-1,.67-1.67,1.7-1.71Z"/>
  <path class="cls-6" d="m34.41,70.55c-2.6-.98-4.92-.95-7.07.1-.17.11-.34.22-.5.34-.12.08-.24.17-.36.27-.15.08-.31.16-.47.24-.28.13-.65.33-.98.33,0-.01,0-.03.01-.04.02-.06.05-.12.07-.18.09-.08.18-.17.27-.25.02-.02.04-.03.06-.04.27-.31.47-.66.7-1,.04-.14.1-.27.17-.41,1.63-3.29-.02-6.74-2.32-8.23-1.05-.68-1.05-1.16.08-1.66,1.37-.61,2.64-1.36,3.82-2.29,1.13-.89,2.15-1.88,3.21-2.97-.62,5.53.23,10.67,3.33,15.79Z"/>
  <path class="cls-4" d="m22.86,51.23c1.33.02,2.06.86,2.02,2.36-.04,1.62-1.4,2.96-2.93,2.89-1.21-.06-1.96-1.03-1.94-2.5.02-1.54,1.3-2.76,2.85-2.74Z"/>
</svg>